<?xml version='1.0' encoding='UTF-8' standalone='no'?>
<!-- Created with Fritzing (https://fritzing.org/) -->
<svg xmlns="http://www.w3.org/2000/svg" y="0in" viewBox="0 0 3499.24 2640.72"  baseProfile="tiny" version="1.2" height="2.64072in" width="3.49924in" x="0in" xmlns:svg="http://www.w3.org/2000/svg">
 <g  id="watermark">
  <g >
   <g >
    <path  fill="#8C8C8C" d="M3155.74,2554.61c-8.38889,0,-15.7083,4.51389,-19.75,11.2361l-38.8333,0l55,-56.5417c2.02778,-2.02778,4.01389,-4.47222,5.94444,-7.23611c2.06944,-3.08333,3.16667,-6.65278,3.16667,-10.6667c0,-3.875,-1.34722,-7.19444,-3.98611,-9.86111c-2.63889,-2.61111,-6.16667,-3.98611,-10.4722,-3.98611l-64.3889,0c-4.23611,0,-7.70833,0.833333,-10.3056,2.36111c-3.04167,1.80556,-4.58333,5.11111,-4.58333,9.81944c0,4.56944,1.54167,7.80556,4.58333,9.61111c2.61111,1.54167,6.08333,2.33333,10.3056,2.33333l43.7222,0l-55.1944,56.75c-2.02778,2.04167,-4.01389,4.375,-5.90278,7c-2.125,2.94444,-3.19444,6.55556,-3.19444,10.7083c0,3.88889,1.33333,7.23611,4,9.875c2.61111,2.61111,6.13889,3.95833,10.4722,3.95833l59.9306,0c4.06944,6.48611,11.2778,10.7778,19.4444,10.7778c12.7222,0,23.0556,-10.3333,23.0556,-23.0694C3178.78,2564.95,3168.43,2554.61,3155.74,2554.61zM3155.74,2586.04c-4.63889,0,-8.38889,-3.76389,-8.38889,-8.38889c0,-4.625,3.75,-8.38889,8.38889,-8.38889c4.61111,0,8.38889,3.76389,8.38889,8.38889C3164.12,2582.3,3160.35,2586.04,3155.74,2586.04z"/>
    <path  fill="#8C8C8C" d="M2920.42,2415.13c-12.6944,0,-23.0417,10.3472,-23.0417,23.0556c0,12.7222,10.3472,23.0556,23.0417,23.0556s23.0278,-10.3333,23.0278,-23.0556C2943.48,2425.48,2933.14,2415.13,2920.42,2415.13zM2920.43,2446.57c-4.625,0,-8.38889,-3.75,-8.38889,-8.375s3.76389,-8.375,8.38889,-8.375c4.59722,0,8.38889,3.75,8.38889,8.375S2925.03,2446.57,2920.43,2446.57z"/>
    <path  fill="#8C8C8C" d="M3038.77,2479.88c-2.68056,-1.54167,-6.09722,-2.34722,-10.1667,-2.34722l-20.3472,0L3008.25,2442.51c0,-4.05556,-0.791667,-7.47222,-2.30556,-10.125C3004.7,2430.2,3002.02,2427.63,2996.32,2427.63c-4.72222,0,-8.02778,1.61111,-9.84722,4.75c-1.51389,2.68056,-2.31944,6.08333,-2.31944,10.125l0,35.0139l-6.68056,0c-4.09722,0,-7.48611,0.833333,-10.1528,2.34722c-3.16667,1.79167,-4.73611,5.11111,-4.73611,9.83333c0,5.72222,2.56944,8.375,4.73611,9.61111c2.66667,1.54167,6.08333,2.33333,10.1528,2.33333l6.68056,0l0,60.5833c0,3.84722,0.361111,7.40278,1.125,10.6667c0.777778,3.41667,2.13889,6.44444,4.13889,8.95833c2.02778,2.58333,4.79167,4.61111,8.26389,6.05556c3.34722,1.36111,7.70833,2.02778,12.9167,2.02778l12.4444,0c4.05556,0,7.48611,-0.75,10.1528,-2.30556c2.13889,-1.23611,4.73611,-3.90278,4.73611,-9.625c0,-4.69444,-1.58333,-8.02778,-4.73611,-9.84722c-2.66667,-1.51389,-6.09722,-2.33333,-10.1528,-2.33333l-11.4028,0c-1.91667,0,-2.63889,-0.263889,-2.875,-0.333333c-0.194444,-0.472222,-0.486111,-1.43056,-0.486111,-3.20833L3008.28,2501.66l20.3472,0c4.09722,0,7.51389,-0.791667,10.1944,-2.33333c2.11111,-1.25,4.72222,-3.88889,4.72222,-9.61111C3043.49,2485,3041.92,2481.68,3038.77,2479.88z"/>
    <path  fill="#8C8C8C" d="M2921.34,2477.52l-16.5417,0c-4.05556,0,-7.47222,0.819444,-10.1528,2.34722c-3.13889,1.79167,-4.73611,5.11111,-4.73611,9.83333c0,5.72222,2.61111,8.38889,4.73611,9.59722c2.68056,1.56944,6.09722,2.33333,10.1528,2.33333l7.55556,0l0,74.4722c0,4.06944,0.791667,7.48611,2.31944,10.1389c1.81944,3.15278,5.09722,4.73611,9.83333,4.73611c5.70833,0,8.38889,-2.59722,9.61111,-4.73611c1.54167,-2.65278,2.33333,-6.08333,2.33333,-10.1389L2936.45,2492.63c0,-5.36111,-1.16667,-9.11111,-3.55556,-11.5278C2930.46,2478.72,2926.71,2477.52,2921.34,2477.52z"/>
    <path  fill="#8C8C8C" d="M2868.07,2479.88c-2.68056,-1.54167,-6.11111,-2.34722,-10.1667,-2.34722l-8.38889,0c-3.47222,0,-6.91667,0.875,-10.1944,2.59722c-3.13889,1.65278,-6.01389,3.76389,-8.55556,6.29167l-8.94444,8.38889l0,-3.43056c0,-4.04167,-0.763889,-7.47222,-2.33333,-10.125c-1.77778,-3.16667,-5.11111,-4.72222,-9.81944,-4.72222c-5.69444,0,-8.38889,2.55556,-9.625,4.72222c-1.52778,2.65278,-2.31944,6.08333,-2.31944,10.125l0,66.6806c-6.59722,4.06944,-10.9861,11.3333,-10.9861,19.6111c0,12.7361,10.3472,23.0694,23.0278,23.0694c12.7222,0,23.0556,-10.3333,23.0556,-23.0694c0,-8.27778,-4.40278,-15.5417,-11,-19.6111l0,-30.6944l24.1389,-21.7222c1.38889,-1.25,2.76389,-2.27778,4.125,-3.01389c1.16667,-0.625,2.41667,-0.930556,3.80556,-0.930556l4,0c4.05556,0,7.48611,-0.777778,10.1667,-2.34722c2.15278,-1.22222,4.70833,-3.875,4.70833,-9.59722C2872.8,2485,2871.2,2481.68,2868.07,2479.88zM2809.75,2586.04c-4.61111,0,-8.375,-3.76389,-8.375,-8.38889c0,-4.625,3.76389,-8.38889,8.375,-8.38889c4.625,0,8.38889,3.76389,8.38889,8.38889C2818.14,2582.3,2814.38,2586.04,2809.75,2586.04z"/>
    <path  fill="#8C8C8C" d="M2774.8,2431.01c-2.68056,-1.54167,-6.11111,-2.31944,-10.1528,-2.31944l-8.19444,0c-2.77778,0,-5.40278,0.0555556,-7.80556,0.222222c-2.44444,0.125,-4.79167,0.486111,-7.02778,0.972222c-2.33333,0.569444,-4.66667,1.51389,-6.88889,2.80556c-2.19444,1.29167,-4.43056,3.08333,-6.66667,5.30556c-4.63889,4.36111,-7.69444,9.11111,-9.05556,14.125c-1.30556,4.83333,-1.98611,10.2083,-1.98611,15.9861l0,9.41667l-6.70833,0c-4.05556,0,-7.48611,0.819444,-10.1389,2.34722c-3.15278,1.80556,-4.75,5.125,-4.75,9.83333c0,5.72222,2.56944,8.38889,4.73611,9.625c2.65278,1.54167,6.08333,2.30556,10.1389,2.30556l6.70833,0l0,74.4722c0,4.06944,0.791667,7.48611,2.31944,10.1389c1.80556,3.15278,5.09722,4.73611,9.83333,4.73611c5.70833,0,8.375,-2.59722,9.61111,-4.73611c1.54167,-2.65278,2.33333,-6.08333,2.33333,-10.1389l0,-74.4444l12.7778,0c4.06944,0,7.5,-0.791667,10.1667,-2.33333c2.15278,-1.25,4.72222,-3.88889,4.72222,-9.61111c0,-4.72222,-1.58333,-8.04167,-4.72222,-9.83333c-2.625,-1.54167,-6.05556,-2.36111,-10.125,-2.36111l-12.7778,0l0,-9.41667c0,-3.02778,0.263889,-5.69444,0.777778,-7.93056c0.444444,-1.95833,1.43056,-3.625,3.02778,-5.09722l0.0277778,-0.0555556l0.0277778,-0.0277778c1.13889,-1.13889,2.44444,-1.75,4.02778,-1.88889c2.08333,-0.208333,4.70833,-0.305556,7.83333,-0.305556l7.77778,0c4.04167,0,7.48611,-0.805556,10.1528,-2.33333c2.13889,-1.22222,4.70833,-3.90278,4.70833,-9.625C2779.52,2436.13,2777.92,2432.82,2774.8,2431.01z"/>
    <path  fill="#8C8C8C" d="M3496.92,2481.25c-1.23611,-2.16667,-3.91667,-4.72222,-9.625,-4.72222c-4.70833,0,-8.02778,1.56944,-9.81944,4.72222c-1.08333,1.84722,-1.76389,4.06944,-2.11111,6.625l-0.291667,-0.291667c-3,-3.27778,-6.47222,-5.83333,-10.375,-7.48611c-3.84722,-1.65278,-7.81944,-2.54167,-11.7917,-2.54167l-9.84722,0c-3.45833,0,-6.47222,0.208333,-8.88889,0.569444c-2.52778,0.361111,-4.88889,1.02778,-7.08333,1.94444c-2.19444,0.916667,-4.34722,2.08333,-6.375,3.52778c-1.93056,1.34722,-4.20833,3.13889,-6.75,5.23611c-2.61111,2.16667,-4.75,4.19444,-6.43056,6.02778c-1.76389,1.95833,-3.19444,4.06944,-4.25,6.31944c-0.958333,2.22222,-1.69444,4.68056,-2.04167,7.26389c-0.361111,2.47222,-0.569444,5.43056,-0.569444,8.76389l0,33.1389c0,3.33333,0.208333,6.26389,0.569444,8.76389c0.347222,2.61111,1.08333,5.01389,2.04167,7.23611c1.02778,2.27778,2.48611,4.41667,4.25,6.34722c1.65278,1.79167,3.80556,3.80556,6.43056,6.01389c2.58333,2.125,4.86111,3.88889,6.75,5.26389c2.02778,1.43056,4.15278,2.61111,6.375,3.52778c2.19444,0.902778,4.56944,1.55556,7.08333,1.94444c2.41667,0.361111,5.40278,0.541667,8.88889,0.541667l9.84722,0c4.13889,0,8.20833,-0.916667,12.0833,-2.76389c3.38889,-1.58333,6.83333,-4.04167,10.1389,-7.26389l0,19.9167c0,2.5,-0.347222,4.63889,-1,6.45833c-0.597222,1.65278,-2.20833,3.58333,-4.77778,5.63889c-2.13889,1.76389,-4.29167,3.01389,-6.34722,3.66667c-2.08333,0.680556,-4.73611,1.02778,-7.81944,1.02778l-30.5972,0c-4.06944,0,-7.47222,0.763889,-10.1667,2.30556c-2.11111,1.22222,-4.72222,3.91667,-4.72222,9.61111c0,4.73611,1.59722,8.04167,4.72222,9.86111c2.69444,1.51389,6.09722,2.31944,10.1667,2.31944l32.3056,0c3.43056,0,6.43056,-0.208333,8.86111,-0.569444c2.48611,-0.361111,4.875,-1.01389,7.125,-1.94444c2.125,-0.888889,4.30556,-2.08333,6.31944,-3.52778c1.98611,-1.40278,4.23611,-3.15278,6.76389,-5.26389c2.56944,-2.125,4.76389,-4.15278,6.43056,-5.98611c1.77778,-1.95833,3.18056,-4.08333,4.22222,-6.33333c0.986111,-2.25,1.70833,-4.69444,2.05556,-7.26389c0.347222,-2.52778,0.569444,-5.45833,0.569444,-8.76389l0,-109.694C3499.24,2487.33,3498.49,2483.9,3496.92,2481.25zM3475.13,2543.19c0,2.61111,-0.861111,4.86111,-2.61111,6.80556c-2.08333,2.38889,-5.47222,5.59722,-9.94444,9.52778l-0.0277778,0.0416667l-0.0277778,0.0555556c-1.93056,1.80556,-4.04167,3.29167,-6.29167,4.51389c-2.05556,1.13889,-4.51389,1.68056,-7.30556,1.68056L3444.74,2565.82c-3.08333,0,-5.69444,-0.291667,-7.81944,-1c-2.05556,-0.680556,-4.18056,-1.90278,-6.29167,-3.66667c-3.20833,-2.58333,-4.375,-4.47222,-4.80556,-5.61111c-0.680556,-1.81944,-1,-3.95833,-1,-6.45833l0,-30.6389c0,-2.5,0.319444,-4.66667,1,-6.48611c0.402778,-1.13889,1.56944,-3.01389,4.80556,-5.59722c2.11111,-1.76389,4.23611,-3,6.29167,-3.68056c2.125,-0.680556,4.75,-1,7.81944,-1l4.18056,0c2.94444,0,5.38889,0.513889,7.30556,1.56944c2.11111,1.13889,4.27778,2.65278,6.34722,4.5c4.47222,4.06944,7.83333,7.34722,9.94444,9.72222c1.77778,2.02778,2.61111,4.22222,2.61111,6.83333L3475.13,2543.19z"/>
    <path  fill="#8C8C8C" d="M3219.43,2415.13c-12.6944,0,-23.0556,10.3472,-23.0556,23.0556c0,12.7222,10.3611,23.0556,23.0556,23.0556s23.0556,-10.3333,23.0556,-23.0556C3242.49,2425.48,3232.13,2415.13,3219.43,2415.13zM3219.43,2446.57c-4.61111,0,-8.38889,-3.75,-8.38889,-8.375s3.76389,-8.375,8.38889,-8.375s8.38889,3.75,8.38889,8.375C3227.82,2442.82,3224.05,2446.57,3219.43,2446.57z"/>
    <path  fill="#8C8C8C" d="M3367.85,2557.75l-1.48611,-47.4861c-0.152778,-2.47222,-0.291667,-4.69444,-0.430556,-6.79167c-0.138889,-2.25,-0.513889,-4.47222,-1.13889,-6.61111c-0.625,-2.19444,-1.52778,-4.29167,-2.75,-6.29167c-1.29167,-2.02778,-3,-4.01389,-5.13889,-5.83333c-3.125,-2.66667,-6.15278,-4.63889,-8.97222,-5.77778c-2.875,-1.16667,-6.40278,-1.76389,-10.4722,-1.76389l-14.0556,0c-3.59722,0,-6.95833,0.805556,-9.94444,2.27778c-2.73611,1.36111,-5.41667,2.81944,-7.94444,4.375l-0.0416667,0.0277778l-0.0416667,0.0416667l-11.625,7.70833l0,-0.569444c0,-4.04167,-0.791667,-7.48611,-2.33333,-10.1806c-1.79167,-3.13889,-5.09722,-4.70833,-9.81944,-4.70833c-5.70833,0,-8.38889,2.56944,-9.625,4.70833c-1.51389,2.69444,-2.33333,6.08333,-2.33333,10.1806l0,84.7083c0,4.09722,0.819444,7.48611,2.33333,10.1944c1.25,2.125,3.91667,4.69444,9.625,4.69444c4.72222,0,8.02778,-1.58333,9.81944,-4.69444c1.54167,-2.70833,2.33333,-6.09722,2.33333,-10.1944L3293.81,2519.72l27.125,-16.875c0.555556,-0.333333,1.13889,-0.666667,1.68056,-0.875c0.430556,-0.222222,0.972222,-0.347222,1.59722,-0.430556c0.680556,-0.166667,1.625,-0.222222,2.70833,-0.222222l5.02778,0c2.61111,0,4.63889,0.291667,6.04167,0.819444c1.13889,0.402778,1.98611,1.05556,2.5,1.98611c0.694444,1.08333,1.11111,2.5,1.36111,4.20833c0.277778,1.93056,0.472222,4.29167,0.625,7l1.33333,43.0139c-6.34722,4.125,-10.5833,11.2639,-10.5833,19.3611c0,12.7361,10.3611,23.0694,23.0556,23.0694c12.7222,0,23.0556,-10.3333,23.0556,-23.0694C3379.32,2569.2,3374.7,2561.73,3367.85,2557.75zM3356.27,2586.04c-4.63889,0,-8.36111,-3.76389,-8.36111,-8.38889c0,-4.625,3.72222,-8.38889,8.36111,-8.38889c4.625,0,8.38889,3.76389,8.38889,8.38889C3364.67,2582.3,3360.89,2586.04,3356.27,2586.04z"/>
    <path  fill="#8C8C8C" d="M3220.31,2477.52l-16.5694,0c-4.06944,0,-7.48611,0.819444,-10.1528,2.34722c-3.13889,1.79167,-4.73611,5.11111,-4.73611,9.83333c0,5.72222,2.58333,8.38889,4.73611,9.59722c2.66667,1.56944,6.08333,2.33333,10.1528,2.33333l7.56944,0l0,74.4722c0,4.06944,0.763889,7.48611,2.33333,10.1389c1.76389,3.15278,5.06944,4.73611,9.81944,4.73611c5.69444,0,8.38889,-2.59722,9.59722,-4.73611c1.54167,-2.65278,2.36111,-6.08333,2.36111,-10.1389L3235.42,2492.63c0,-5.36111,-1.18056,-9.11111,-3.59722,-11.5278C3229.43,2478.72,3225.64,2477.52,3220.31,2477.52z"/>
   </g>
  </g>
 </g>
 <g partID="57710">
  <g transform="translate(165.908,98.4722)">
   <g  id="board">
    <rect stroke="#111111" y="4"  fill-opacity="0.5" stroke-width="8" id="boardoutline" height="2214.22" fill="#ffffff" width="3325.33" x="4"/>
   </g>
  </g>
 </g>
 <g partID="57712">
  <g transform="translate(165.908,98.4722)">
   <g  id="silkscreen0">
    <rect stroke="#000000" y="4"  stroke-width="8" height="2214.22" fill="none" width="3325.33" x="4"/>
   </g>
  </g>
 </g>
 <g partID="854119140">
  <g transform="translate(140.352,95.1389)">
   <g  gorn="0.3.0" id="copper0">
    <circle stroke="rgb(255, 191, 0)"  gorn="0.3.0.0" stroke-width="20" id="connector2pad" fill="none" r="29" cx="70" cy="70"/>
    <circle stroke="rgb(255, 191, 0)"  gorn="0.3.0.1" stroke-width="20" id="connector3pad" fill="none" r="29" cx="70" cy="170"/>
   </g>
  </g>
 </g>
 <g partID="854119170">
  <g transform="translate(140.352,495.139)">
   <g  gorn="0.3.0" id="copper0">
    <circle stroke="rgb(255, 191, 0)"  gorn="0.3.0.0" stroke-width="20" id="connector2pad" fill="none" r="29" cx="70" cy="70"/>
    <circle stroke="rgb(255, 191, 0)"  gorn="0.3.0.1" stroke-width="20" id="connector3pad" fill="none" r="29" cx="70" cy="170"/>
   </g>
  </g>
 </g>
 <g partID="854119200">
  <g transform="translate(1346.46,1061.2)">
   <g transform="matrix(0,1,-1,0,0,0)">
    <g  gorn="0.2" id="copper0">
     <g  gorn="0.2.0" id="copper1">
      <circle stroke="#F7BD13"  gorn="0.2.0.0" stroke-width="20.8333" id="connector0pad" fill="none" r="28.4722" cx="53.9444" cy="286.111"/>
      <circle stroke="#F7BD13"  gorn="0.2.0.1" stroke-width="20.8333" id="connector1pad" fill="none" r="28.4722" cx="53.9444" cy="386.112"/>
      <circle stroke="#F7BD13"  gorn="0.2.0.2" stroke-width="20.8333" id="connector2pad" fill="none" r="28.4722" cx="53.9444" cy="486.112"/>
      <circle stroke="#F7BD13"  gorn="0.2.0.3" stroke-width="20.8333" id="connector3pad" fill="none" r="28.4722" cx="53.9444" cy="586.112"/>
      <circle stroke="#F7BD13"  gorn="0.2.0.4" stroke-width="20.8333" id="connector4pad" fill="none" r="28.4722" cx="53.9444" cy="686.112"/>
      <circle stroke="#F7BD13"  gorn="0.2.0.5" stroke-width="20.8333" id="connector5pad" fill="none" r="28.4722" cx="53.9444" cy="786.112"/>
      <circle stroke="#F7BD13"  gorn="0.2.0.6" stroke-width="20.8333" id="connector6pad" fill="none" r="28.4722" cx="53.9444" cy="886.112"/>
      <circle stroke="#F7BD13"  gorn="0.2.0.7" stroke-width="20.8333" id="connector7pad" fill="none" r="28.4722" cx="53.9444" cy="986.112"/>
      <circle stroke="#F7BD13"  gorn="0.2.0.8" stroke-width="20.8333" id="connector8pad" fill="none" r="28.4722" cx="953.93" cy="986.112"/>
      <circle stroke="#F7BD13"  gorn="0.2.0.9" stroke-width="20.8333" id="connector9pad" fill="none" r="28.4722" cx="953.93" cy="886.112"/>
      <circle stroke="#F7BD13"  gorn="0.2.0.10" stroke-width="20.8333" id="connector10pad" fill="none" r="28.4722" cx="953.93" cy="786.112"/>
      <circle stroke="#F7BD13"  gorn="0.2.0.11" stroke-width="20.8333" id="connector11pad" fill="none" r="28.4722" cx="953.93" cy="686.112"/>
      <circle stroke="#F7BD13"  gorn="0.2.0.12" stroke-width="20.8333" id="connector12pad" fill="none" r="28.4722" cx="953.93" cy="586.112"/>
      <circle stroke="#F7BD13"  gorn="0.2.0.13" stroke-width="20.8333" id="connector13pad" fill="none" r="28.4722" cx="953.93" cy="486.112"/>
      <circle stroke="#F7BD13"  gorn="0.2.0.14" stroke-width="20.8333" id="connector14pad" fill="none" r="28.4722" cx="953.93" cy="386.112"/>
      <circle stroke="#F7BD13"  gorn="0.2.0.15" stroke-width="20.8333" id="connector15pad" fill="none" r="28.4722" cx="953.93" cy="286.111"/>
     </g>
    </g>
   </g>
  </g>
 </g>
 <g partID="854119230">
  <g transform="translate(2381.62,871.926)">
   <g transform="matrix(0,1,-1,0,0,0)">
    <g  id="copper0">
     <circle stroke="#f7bd13"  stroke-width="20" id="connector0pin" fill="none" r="29" cx="85.2388" cy="90.0302"/>
     <circle stroke="#f7bd13"  stroke-width="20" id="connector1pin" fill="none" r="29" cx="83.2817" cy="215.383"/>
     <circle stroke="#f7bd13"  stroke-width="20" id="connector2pin" fill="none" r="29" cx="230.06" cy="416.959"/>
     <circle stroke="#f7bd13"  stroke-width="20" id="connector3pin" fill="none" r="29" cx="230.06" cy="527.178"/>
     <circle stroke="#f7bd13"  stroke-width="20" id="connector4pin" fill="none" r="29" cx="230.06" cy="661.036"/>
     <circle stroke="#f7bd13"  stroke-width="20" id="connector5pin" fill="none" r="29" cx="230.06" cy="771.272"/>
     <circle stroke="#f7bd13"  stroke-width="20" id="connector6pin" fill="none" r="29" cx="793.213" cy="771.272"/>
     <circle stroke="#f7bd13"  stroke-width="20" id="connector7pin" fill="none" r="29" cx="793.213" cy="661.036"/>
     <circle stroke="#f7bd13"  stroke-width="20" id="connector8pin" fill="none" r="29" cx="793.213" cy="527.178"/>
     <circle stroke="#f7bd13"  stroke-width="20" id="connector9pin" fill="none" r="29" cx="793.213" cy="416.959"/>
    </g>
   </g>
  </g>
 </g>
 <g partID="854119530">
  <g transform="translate(1680.35,2095.14)">
   <g transform="matrix(0,1,-1,0,0,0)">
    <g  id="copper0">
     <rect stroke="rgb(255, 191, 0)" y="41"  stroke-width="20" id="square" height="58" fill="none" width="58" x="41"/>
     <circle stroke="rgb(255, 191, 0)"  stroke-width="20" id="connector0pin" fill="none" r="29" cx="70" cy="70"/>
     <circle stroke="rgb(255, 191, 0)"  stroke-width="20" id="connector1pin" fill="none" r="29" cx="70" cy="170"/>
     <circle stroke="rgb(255, 191, 0)"  stroke-width="20" id="connector2pin" fill="none" r="29" cx="70" cy="270"/>
    </g>
   </g>
  </g>
 </g>
 <g partID="854119580">
  <g transform="translate(440.352,95.1389)">
   <g  id="copper0">
    <rect stroke="rgb(255, 191, 0)" y="41"  stroke-width="20" id="square" height="58" fill="none" width="58" x="41"/>
    <circle stroke="rgb(255, 191, 0)"  stroke-width="20" id="connector0pin" fill="none" r="29" cx="70" cy="70"/>
    <circle stroke="rgb(255, 191, 0)"  stroke-width="20" id="connector1pin" fill="none" r="29" cx="70" cy="270"/>
   </g>
  </g>
 </g>
 <g partID="854119630">
  <g transform="translate(3119.55,615.038)">
   <g transform="matrix(0,1,-1,0,0,0)">
    <g transform="matrix(1, 0, 0, 1, 150.568, 118.5)">
     <g id="copper0">
      <g gorn="0.5.0.0">
       <circle stroke="#ffbf00" gorn="0.5.0.0.0" stroke-width="20" id="connector0pin" fill="none" r="29" cx="-100.466" cy="-69.3077"/>
       <circle stroke="#ffbf00" gorn="0.5.0.0.1" stroke-width="20" id="connector1pin" fill="none" r="29" cx="-100.466" cy="290.699"/>
       <circle stroke="#ffbf00" gorn="0.5.0.0.4" stroke-width="20" id="connector2pin" fill="none" r="29" cx="499.52" cy="290.692"/>
       <circle stroke="#ffbf00" gorn="0.5.0.0.2" stroke-width="20" id="connector3pin" fill="none" r="29" cx="499.52" cy="-69.3077"/>
       <rect stroke="#ffbf00" y="259.645" fill-opacity="1" stroke-width="16.5494" height="61.2564" id="rect3363" width="61.0809" fill="none" x="468.918"/>
       <rect stroke="#ffbf00" y="-99.4213" fill-opacity="1" stroke-width="16.5494" id="rect3368" height="61.2564" width="61.0809" fill="none" x="468.918"/>
       <rect stroke="#ffbf00" y="-100.223" fill-opacity="1" stroke-width="16.5494" height="61.2564" id="rect3370" width="61.0809" fill="none" x="-131.396"/>
       <rect stroke="#ffbf00" y="259.912" fill-opacity="1" stroke-width="16.5494" id="rect3372" height="61.2564" width="61.0809" fill="none" x="-131.129"/>
      </g>
     </g>
    </g>
   </g>
  </g>
 </g>
 <g partID="854119141">
  <g transform="translate(140.352,95.1389)">
   <g  gorn="0.3" id="copper1">
    <g  gorn="0.3.0" id="copper0">
     <circle stroke="rgb(255, 191, 0)"  gorn="0.3.0.0" stroke-width="20" id="connector2pad" fill="none" r="29" cx="70" cy="70"/>
     <circle stroke="rgb(255, 191, 0)"  gorn="0.3.0.1" stroke-width="20" id="connector3pad" fill="none" r="29" cx="70" cy="170"/>
    </g>
   </g>
  </g>
 </g>
 <g partID="854119171">
  <g transform="translate(140.352,495.139)">
   <g  gorn="0.3" id="copper1">
    <g  gorn="0.3.0" id="copper0">
     <circle stroke="rgb(255, 191, 0)"  gorn="0.3.0.0" stroke-width="20" id="connector2pad" fill="none" r="29" cx="70" cy="70"/>
     <circle stroke="rgb(255, 191, 0)"  gorn="0.3.0.1" stroke-width="20" id="connector3pad" fill="none" r="29" cx="70" cy="170"/>
    </g>
   </g>
  </g>
 </g>
 <g partID="854119201">
  <g transform="translate(1346.46,1061.2)">
   <g transform="matrix(0,1,-1,0,0,0)">
    <g  gorn="0.2.0" id="copper1">
     <circle stroke="#F7BD13"  gorn="0.2.0.0" stroke-width="20.8333" id="connector0pad" fill="none" r="28.4722" cx="53.9444" cy="286.111"/>
     <circle stroke="#F7BD13"  gorn="0.2.0.1" stroke-width="20.8333" id="connector1pad" fill="none" r="28.4722" cx="53.9444" cy="386.112"/>
     <circle stroke="#F7BD13"  gorn="0.2.0.2" stroke-width="20.8333" id="connector2pad" fill="none" r="28.4722" cx="53.9444" cy="486.112"/>
     <circle stroke="#F7BD13"  gorn="0.2.0.3" stroke-width="20.8333" id="connector3pad" fill="none" r="28.4722" cx="53.9444" cy="586.112"/>
     <circle stroke="#F7BD13"  gorn="0.2.0.4" stroke-width="20.8333" id="connector4pad" fill="none" r="28.4722" cx="53.9444" cy="686.112"/>
     <circle stroke="#F7BD13"  gorn="0.2.0.5" stroke-width="20.8333" id="connector5pad" fill="none" r="28.4722" cx="53.9444" cy="786.112"/>
     <circle stroke="#F7BD13"  gorn="0.2.0.6" stroke-width="20.8333" id="connector6pad" fill="none" r="28.4722" cx="53.9444" cy="886.112"/>
     <circle stroke="#F7BD13"  gorn="0.2.0.7" stroke-width="20.8333" id="connector7pad" fill="none" r="28.4722" cx="53.9444" cy="986.112"/>
     <circle stroke="#F7BD13"  gorn="0.2.0.8" stroke-width="20.8333" id="connector8pad" fill="none" r="28.4722" cx="953.93" cy="986.112"/>
     <circle stroke="#F7BD13"  gorn="0.2.0.9" stroke-width="20.8333" id="connector9pad" fill="none" r="28.4722" cx="953.93" cy="886.112"/>
     <circle stroke="#F7BD13"  gorn="0.2.0.10" stroke-width="20.8333" id="connector10pad" fill="none" r="28.4722" cx="953.93" cy="786.112"/>
     <circle stroke="#F7BD13"  gorn="0.2.0.11" stroke-width="20.8333" id="connector11pad" fill="none" r="28.4722" cx="953.93" cy="686.112"/>
     <circle stroke="#F7BD13"  gorn="0.2.0.12" stroke-width="20.8333" id="connector12pad" fill="none" r="28.4722" cx="953.93" cy="586.112"/>
     <circle stroke="#F7BD13"  gorn="0.2.0.13" stroke-width="20.8333" id="connector13pad" fill="none" r="28.4722" cx="953.93" cy="486.112"/>
     <circle stroke="#F7BD13"  gorn="0.2.0.14" stroke-width="20.8333" id="connector14pad" fill="none" r="28.4722" cx="953.93" cy="386.112"/>
     <circle stroke="#F7BD13"  gorn="0.2.0.15" stroke-width="20.8333" id="connector15pad" fill="none" r="28.4722" cx="953.93" cy="286.111"/>
    </g>
   </g>
  </g>
 </g>
 <g partID="854119231">
  <g transform="translate(2381.62,871.926)">
   <g transform="matrix(0,1,-1,0,0,0)">
    <g  id="copper1">
     <g  id="copper0">
      <circle stroke="#f7bd13"  stroke-width="20" id="connector0pin" fill="none" r="29" cx="85.2388" cy="90.0302"/>
      <circle stroke="#f7bd13"  stroke-width="20" id="connector1pin" fill="none" r="29" cx="83.2817" cy="215.383"/>
      <circle stroke="#f7bd13"  stroke-width="20" id="connector2pin" fill="none" r="29" cx="230.06" cy="416.959"/>
      <circle stroke="#f7bd13"  stroke-width="20" id="connector3pin" fill="none" r="29" cx="230.06" cy="527.178"/>
      <circle stroke="#f7bd13"  stroke-width="20" id="connector4pin" fill="none" r="29" cx="230.06" cy="661.036"/>
      <circle stroke="#f7bd13"  stroke-width="20" id="connector5pin" fill="none" r="29" cx="230.06" cy="771.272"/>
      <circle stroke="#f7bd13"  stroke-width="20" id="connector6pin" fill="none" r="29" cx="793.213" cy="771.272"/>
      <circle stroke="#f7bd13"  stroke-width="20" id="connector7pin" fill="none" r="29" cx="793.213" cy="661.036"/>
      <circle stroke="#f7bd13"  stroke-width="20" id="connector8pin" fill="none" r="29" cx="793.213" cy="527.178"/>
      <circle stroke="#f7bd13"  stroke-width="20" id="connector9pin" fill="none" r="29" cx="793.213" cy="416.959"/>
     </g>
    </g>
   </g>
  </g>
 </g>
 <g partID="854119531">
  <g transform="translate(1680.35,2095.14)">
   <g transform="matrix(0,1,-1,0,0,0)">
    <g  id="copper1">
     <g  id="copper0">
      <rect stroke="rgb(255, 191, 0)" y="41"  stroke-width="20" id="square" height="58" fill="none" width="58" x="41"/>
      <circle stroke="rgb(255, 191, 0)"  stroke-width="20" id="connector0pin" fill="none" r="29" cx="70" cy="70"/>
      <circle stroke="rgb(255, 191, 0)"  stroke-width="20" id="connector1pin" fill="none" r="29" cx="70" cy="170"/>
      <circle stroke="rgb(255, 191, 0)"  stroke-width="20" id="connector2pin" fill="none" r="29" cx="70" cy="270"/>
     </g>
    </g>
   </g>
  </g>
 </g>
 <g partID="854119581">
  <g transform="translate(440.352,95.1389)">
   <g  id="copper1">
    <g  id="copper0">
     <rect stroke="rgb(255, 191, 0)" y="41"  stroke-width="20" id="square" height="58" fill="none" width="58" x="41"/>
     <circle stroke="rgb(255, 191, 0)"  stroke-width="20" id="connector0pin" fill="none" r="29" cx="70" cy="70"/>
     <circle stroke="rgb(255, 191, 0)"  stroke-width="20" id="connector1pin" fill="none" r="29" cx="70" cy="270"/>
    </g>
   </g>
  </g>
 </g>
 <g partID="854119631">
  <g transform="translate(3119.55,615.038)">
   <g transform="matrix(0,1,-1,0,0,0)">
    <g transform="matrix(1, 0, 0, 1, 150.568, 118.5)">
     <g id="copper1">
      <g gorn="0.5.0">
       <g gorn="0.5.0.0" id="copper0">
        <circle stroke="#ffbf00" gorn="0.5.0.0.0" stroke-width="20" id="connector0pin" fill="none" r="29" cx="-100.466" cy="-69.3077"/>
        <circle stroke="#ffbf00" gorn="0.5.0.0.1" stroke-width="20" id="connector1pin" fill="none" r="29" cx="-100.466" cy="290.699"/>
        <circle stroke="#ffbf00" gorn="0.5.0.0.4" stroke-width="20" id="connector2pin" fill="none" r="29" cx="499.52" cy="290.692"/>
        <circle stroke="#ffbf00" gorn="0.5.0.0.2" stroke-width="20" id="connector3pin" fill="none" r="29" cx="499.52" cy="-69.3077"/>
        <rect stroke="#ffbf00" y="259.645" fill-opacity="1" stroke-width="16.5494" height="61.2564" id="rect3363" width="61.0809" fill="none" x="468.918"/>
        <rect stroke="#ffbf00" y="-99.4213" fill-opacity="1" stroke-width="16.5494" id="rect3368" height="61.2564" width="61.0809" fill="none" x="468.918"/>
        <rect stroke="#ffbf00" y="-100.223" fill-opacity="1" stroke-width="16.5494" height="61.2564" id="rect3370" width="61.0809" fill="none" x="-131.396"/>
        <rect stroke="#ffbf00" y="259.912" fill-opacity="1" stroke-width="16.5494" id="rect3372" height="61.2564" width="61.0809" fill="none" x="-131.129"/>
       </g>
      </g>
     </g>
    </g>
   </g>
  </g>
 </g>
 <g partID="854122920">
  <g transform="translate(936.797,497.806)">
   <g transform="matrix(0,1,-1,0,0,0)">
    <g  id="copper1">
     <rect y="0.0138889"  stroke-width="0" id="connector3pin" height="67.0694" fill="#F7BF13" width="40.2361" x="17.2778"/>
     <rect y="0"  stroke-width="0" id="connector2pin" height="67.0694" fill="#F7BF13" width="40.2222" x="147.222"/>
     <rect y="192.903"  stroke-width="0" id="connector0pin" height="67.0833" fill="#F7BF13" width="40.2361" x="17.2778"/>
     <rect y="192.917"  stroke-width="0" id="connector1pin" height="67.0556" fill="#F7BF13" width="40.2222" x="147.222"/>
    </g>
   </g>
  </g>
 </g>
 <g partID="854122950">
  <g transform="translate(1236.8,397.806)">
   <g transform="matrix(0,1,-1,0,0,0)">
    <g  id="copper1">
     <rect y="0.0138889"  stroke-width="0" id="connector3pin" height="67.0694" fill="#F7BF13" width="40.2361" x="17.2778"/>
     <rect y="0"  stroke-width="0" id="connector2pin" height="67.0694" fill="#F7BF13" width="40.2222" x="147.222"/>
     <rect y="192.903"  stroke-width="0" id="connector0pin" height="67.0833" fill="#F7BF13" width="40.2361" x="17.2778"/>
     <rect y="192.917"  stroke-width="0" id="connector1pin" height="67.0556" fill="#F7BF13" width="40.2222" x="147.222"/>
    </g>
   </g>
  </g>
 </g>
 <g partID="854122980">
  <g transform="translate(1236.8,697.806)">
   <g transform="matrix(0,1,-1,0,0,0)">
    <g  id="copper1">
     <rect y="0.0138889"  stroke-width="0" id="connector3pin" height="67.0694" fill="#F7BF13" width="40.2361" x="17.2778"/>
     <rect y="0"  stroke-width="0" id="connector2pin" height="67.0694" fill="#F7BF13" width="40.2222" x="147.222"/>
     <rect y="192.903"  stroke-width="0" id="connector0pin" height="67.0833" fill="#F7BF13" width="40.2361" x="17.2778"/>
     <rect y="192.917"  stroke-width="0" id="connector1pin" height="67.0556" fill="#F7BF13" width="40.2222" x="147.222"/>
    </g>
   </g>
  </g>
 </g>
 <g partID="854126060">
  <line stroke="#157de6" x2="1175.27" x1="738.325" stroke-linecap="round" y2="731.224" stroke-width="5.55556" y1="669.115"/>
 </g>
 <g partID="854126080">
  <line stroke="#1fb551" x2="921.184" x1="1196.9" stroke-linecap="round" y2="1081.81" stroke-width="5.55556" y1="449.764"/>
 </g>
 <g partID="854126100">
  <line stroke="#a37911" x2="931.227" x1="982.381" stroke-linecap="round" y2="543.022" stroke-width="5.55556" y1="557.321"/>
 </g>
 <g partID="854126120">
  <line stroke="#000000" x2="885.06" x1="1005.09" stroke-linecap="round" y2="1081.81" stroke-width="5.55556" y1="749.764"/>
 </g>
 <g partID="854126140">
  <line stroke="#000000" x2="1010.35" x1="1010.35" stroke-linecap="round" y2="720.639" stroke-width="5.55556" y1="449.764"/>
 </g>
 <g partID="854126160">
  <line stroke="#000000" x2="1038.34" x1="3051.96" stroke-linecap="round" y2="742.401" stroke-width="5.55556" y1="1260.39"/>
 </g>
 <g partID="854126180">
  <line stroke="#33ffc5" x2="2691.57" x1="1093.68" stroke-linecap="round" y2="1267.95" stroke-width="5.55556" y1="1507.64"/>
 </g>
 <g partID="854126200">
  <line stroke="#ab58a2" x2="1203.26" x1="1203.26" stroke-linecap="round" y2="850.584" stroke-width="5.55556" y1="579.695"/>
 </g>
 <g partID="854126220">
  <line stroke="#fa50e6" x2="2691.53" x1="529.178" stroke-linecap="round" y2="662.573" stroke-width="5.55556" y1="367.706"/>
 </g>
 <g partID="854126240">
  <line stroke="#157de6" x2="1948.57" x1="226.45" stroke-linecap="round" y2="1655.05" stroke-width="5.55556" y1="575.232"/>
 </g>
 <g partID="854126260">
  <line stroke="#1fb551" x2="226.585" x1="1838.21" stroke-linecap="round" y2="675.012" stroke-width="5.55556" y1="1655.27"/>
 </g>
 <g partID="854126280">
  <line stroke="#a37911" x2="223.833" x1="1707.11" stroke-linecap="round" y2="178.528" stroke-width="5.55556" y1="1651.75"/>
 </g>
 <g partID="854126300">
  <line stroke="#33ffc5" x2="223.787" x1="1596.92" stroke-linecap="round" y2="278.574" stroke-width="5.55556" y1="1651.7"/>
 </g>
 <g partID="854126320">
  <line stroke="#8c3b00" x2="2157.19" x1="1519.41" stroke-linecap="round" y2="971.911" stroke-width="5.55556" y1="2148.44"/>
 </g>
 <g partID="854126340">
  <line stroke="#fa50e6" x2="1593.46" x1="1093.68" stroke-linecap="round" y2="1110.68" stroke-width="5.55556" y1="1367.87"/>
 </g>
 <g partID="854126360">
  <line stroke="#157de6" x2="1093.68" x1="1703.32" stroke-linecap="round" y2="1389.4" stroke-width="5.55556" y1="1109.9"/>
 </g>
 <g partID="854126380">
  <line stroke="#1fb551" x2="1836.83" x1="1093.68" stroke-linecap="round" y2="1109.12" stroke-width="5.55556" y1="1409.96"/>
 </g>
 <g partID="854126400">
  <line stroke="#a37911" x2="1093.68" x1="1946.84" stroke-linecap="round" y2="1423.59" stroke-width="5.55556" y1="1108.57"/>
 </g>
 <g partID="57711">
  <g transform="translate(165.908,98.4722)">
   <g  id="silkscreen">
    <rect stroke="#000000" y="4"  stroke-width="8" height="2214.22" fill="none" width="3325.33" x="4"/>
   </g>
  </g>
 </g>
 <g partID="854119142">
  <g transform="translate(140.352,95.1389)">
   <g  gorn="0.2" id="silkscreen">
    <line stroke="white"  x2="20" x1="20" y2="220" stroke-width="10" y1="20"/>
    <line stroke="white"  x2="120" x1="20" y2="220" stroke-width="10" y1="220"/>
    <line stroke="white"  x2="120" x1="120" y2="20" stroke-width="10" y1="220"/>
    <line stroke="white"  x2="20" x1="120" y2="20" stroke-width="10" y1="20"/>
    <line stroke="white"  x2="55" x1="20" y2="20" stroke-width="5" y1="55"/>
    <!-- 120 -->
   </g>
  </g>
 </g>
 <g partID="854119172">
  <g transform="translate(140.352,495.139)">
   <g  gorn="0.2" id="silkscreen">
    <line stroke="white"  x2="20" x1="20" y2="220" stroke-width="10" y1="20"/>
    <line stroke="white"  x2="120" x1="20" y2="220" stroke-width="10" y1="220"/>
    <line stroke="white"  x2="120" x1="120" y2="20" stroke-width="10" y1="220"/>
    <line stroke="white"  x2="20" x1="120" y2="20" stroke-width="10" y1="20"/>
    <line stroke="white"  x2="55" x1="20" y2="20" stroke-width="5" y1="55"/>
    <!-- 120 -->
   </g>
  </g>
 </g>
 <g partID="854119202">
  <g transform="translate(1346.46,1061.2)">
   <g transform="matrix(0,1,-1,0,0,0)">
    <g gorn="0.1" id="silkscreen">
     <rect stroke="#000000" y="0" stroke-width="2.77777" height="944.876" fill="none" width="629.916" x="188.986" stroke-dasharray="27.7777, 27.7777"/>
     <polygon points="790.374,212.347,773.444,212.347,773.444,45.4028,702.333,45.4028,702.333,152.347,586.444,152.347,586.444,45.4028,513.374,45.4028,513.374,152.347,398.388,152.347,398.388,45.4028,327.333,45.4028,327.333,212.306,310.389,212.306,310.389,45.4028,240.333,45.4028,240.333,212.347,217.444,212.347,217.444,28.4584,415.333,28.4584,415.333,135.403,496.43,135.403,496.43,28.4584,603.388,28.4584,603.388,135.403,685.388,135.403,685.388,28.4584,790.374,28.4584"/>
     <rect stroke="#000000" y="295.278" gorn="0.1.2" stroke-width="2.77777" id="main" height="599.987" fill="none" width="474.986" x="266.416" stroke-dasharray="27.7777, 27.7777"/>
     <g transform="matrix(1, 0, 0, 1, 386.261, 611.122)">
      <g>
       <g>
        <g>
         <g>
          <g>
           <text font-size="55.5555" font-family="'DroidSans'" gorn="0.1.3.0.0.0.0.0" id="label">ESP-8266</text>
          </g>
         </g>
        </g>
       </g>
      </g>
     </g>
     <path gorn="0.1.4" id="board-outline" d="M830.416,8.00001c93.4443,0,169.458,76.1251,169.458,169.681l0,1141.02c0,10.9028,-8.8611,19.7639,-19.7361,19.7639l-319.889,0.0416667c-0.222222,-0.0833334,-0.541666,-0.375,-0.638888,-0.375c-0.0138889,0,-0.0277777,0,-0.0277777,0.0138889l0,-31.9445c0,-10.3611,-9.38888,-19.1111,-20.4861,-19.1111L316.097,1287.08c-9.38888,0,-19.0972,7.16668,-19.0972,19.1111l0.0416666,31.5834c-0.0833332,0.236111,-0.486111,0.625001,-0.361111,0.680556L108.139,1338.46c-10.5278,0,-20.0833,-8.77779,-22.5278,-20.5139L85.611,1079.96c0,-6.05556,-3.29166,-11.4445,-8.80555,-14.1945l-68.8194,-31.6112L7.9861,177.681c0,-93.5418,76.0138,-169.681,169.444,-169.681L830.416,8.00001M830.416,0L177.444,0C80.4027,0,-0.0138889,79.1251,-0.0138889,177.681l0,856.459c0,2.77778,1.38889,5.55556,4.15277,6.94445l69.3194,31.9306c2.77777,1.40278,4.15277,4.18056,4.15277,6.94445l0,238.75c2.79166,15.2639,15.2778,27.75,30.5277,27.75l188.528,0c4.16666,0,8.33332,-4.16667,8.33332,-8.33334l0,-31.9445c0,-6.94445,5.52777,-11.1111,11.0972,-11.1111l323.014,0c6.93055,0,12.4722,5.55556,12.4722,11.1111l0,31.9445c0,4.16667,4.15277,8.33334,8.31944,8.33334l320.25,0c15.2639,0,27.7222,-12.4861,27.7222,-27.7639L1007.87,177.681C1007.87,79.1251,928.846,0,830.416,0L830.416,0z"/>
     <path stroke="#000000" gorn="0.1.5" stroke-width="5.55555" stroke-linecap="round" id="RST" fill="none" d="M162.68,327.82l-31.3889,0M131.292,327.82l0,-15.2639M131.292,312.57l5.37499,-5.37501M136.667,307.195l10.7639,0M147.43,307.195l4.48611,5.37501M151.93,312.57l0,15.2639M151.93,317.959l10.75,-10.7639M136.667,275.792l-5.37499,5.3889M131.292,281.181l0,9.86112M131.292,291.042l5.37499,5.3889M136.667,296.431l5.40277,0M142.069,296.431l5.37499,-5.3889M147.43,291.042l0,-9.86112M147.43,281.181l4.48611,-5.3889M151.93,275.792l5.38888,0M157.305,275.792l5.37499,5.3889M162.68,281.181l0,9.86112M162.68,291.042l-5.37499,5.3889M162.68,254.264l-31.3889,0M131.292,265.028l0,-20.6111"/>
     <path stroke="#000000" gorn="0.1.6" stroke-width="5.55555" stroke-linecap="round" id="A0" fill="none" d="M162.25,412.126l-20.6389,0M141.611,412.126l-9.8611,-9.86112M131.75,402.264l9.8611,-10.75M141.611,391.5l20.6389,0M146.986,412.126l0,-20.6111M157.764,380.723l-21.5278,0M136.236,380.723l-4.48611,-5.37501M131.75,375.348l0,-9.86112M131.75,365.487l4.48611,-5.3889M136.236,360.098l21.5278,0M157.764,360.098l4.48611,5.3889M162.25,365.487l0,9.86112M162.25,375.348l-4.48611,5.37501M157.764,380.723l-21.5278,-20.6111"/>
     <path stroke="#000000" gorn="0.1.7" stroke-width="5.55555" stroke-linecap="round" id="D0" fill="none" d="M131.292,512.126l31.3889,0M162.68,512.126l0,-15.25M162.68,496.876l-5.37499,-5.37501M157.305,491.501L136.667,491.501M136.667,491.501l-5.37499,5.37501M131.292,496.876l0,15.25M157.305,480.737L136.667,480.737M136.667,480.737l-5.37499,-5.3889M131.292,475.348l0,-9.86112M131.292,465.487l5.37499,-5.40278M136.667,460.098l20.6389,0M157.305,460.098l5.37499,5.40278M162.68,465.487l0,9.86112M162.68,475.348l-5.37499,5.3889M157.305,480.737L136.667,460.098"/>
     <path stroke="#000000" gorn="0.1.8" stroke-width="5.55555" stroke-linecap="round" id="D5" fill="none" d="M131.292,612.126l31.3889,0M162.68,612.126l0,-15.25M162.68,596.876l-5.37499,-5.40278M157.305,591.487L136.667,591.487M136.667,591.487l-5.37499,5.40278M131.292,596.876l0,15.25M131.292,560.098l0,20.625M131.292,580.723l15.2639,0M146.555,580.723l-5.40277,-10.7639M141.153,569.959l0,-4.47223M141.153,565.487l5.40277,-5.3889M146.555,560.098l10.75,0M157.305,560.098l5.37499,5.3889M162.68,565.487l0,9.86112M162.68,575.348l-5.37499,5.3889"/>
     <path stroke="#000000" gorn="0.1.9" stroke-width="5.55555" stroke-linecap="round" id="D6" fill="none" d="M131.292,712.126l31.3889,0M162.68,712.126l0,-15.2639M162.68,696.876l-5.37499,-5.37501M157.305,691.501L136.667,691.501M136.667,691.501l-5.37499,5.37501M131.292,696.876l0,15.2639M131.292,660.098l5.37499,9.86112M136.667,669.959l10.7639,10.7639M147.43,680.723l9.87499,0M157.305,680.723l5.37499,-5.3889M162.68,675.348l0,-9.86112M162.68,665.487l-5.37499,-5.3889M157.305,660.098l-5.38888,0M151.93,660.098l-4.48611,5.3889M147.43,665.487l0,15.25"/>
     <path stroke="#000000" gorn="0.1.10" stroke-width="5.55555" stroke-linecap="round" id="D7" fill="none" d="M131.292,812.126l31.3889,0M162.68,812.126l0,-15.2639M162.68,796.876l-5.37499,-5.37501M157.305,791.501L136.667,791.501M136.667,791.501l-5.37499,5.37501M131.292,796.876l0,15.2639M131.292,780.723l0,-20.6111M131.292,760.098L136.667,760.098M136.667,760.098l20.6389,20.6111M157.305,780.723l5.37499,0"/>
     <path stroke="#000000" gorn="0.1.11" stroke-width="5.55555" stroke-linecap="round" id="D8" fill="none" d="M131.292,912.126l31.3889,0M162.68,912.126l0,-15.25M162.68,896.876l-5.37499,-5.37501M157.305,891.501L136.667,891.501M136.667,891.501l-5.37499,5.37501M131.292,896.876l0,15.25M136.667,880.723l-5.37499,-5.37501M131.292,875.348l0,-9.86112M131.292,865.487l5.37499,-5.3889M136.667,860.098l5.40277,0M142.069,860.098l5.37499,5.3889M147.43,865.487l5.38888,-5.3889M152.819,860.098l4.48611,0M157.305,860.098l5.37499,5.3889M162.68,865.487l0,9.86112M162.68,875.348l-5.37499,5.37501M157.305,880.723l-4.48611,0M152.819,880.723l-5.38888,-5.37501M147.43,875.348l-5.37499,5.37501M142.069,880.723L136.667,880.723M147.43,875.348l0,-9.86112"/>
     <path stroke="#000000" gorn="0.1.12" stroke-width="5.55555" stroke-linecap="round" id="_x33_V3" fill="none" d="M136.667,1027.82l-5.37499,-5.37501M131.292,1022.45l0,-9.87501M131.292,1012.57l5.37499,-5.37501M136.667,1007.2l4.48611,0M141.153,1007.2l5.40277,5.37501M146.555,1012.57l0,5.3889M146.555,1012.57l5.37499,-5.37501M151.93,1007.2l5.38888,0M157.305,1007.2l5.37499,5.37501M162.68,1012.57l0,9.87501M162.68,1022.45l-5.37499,5.37501M131.292,996.432l20.625,0M151.93,996.432l10.75,-10.7639M162.68,985.668l-10.75,-9.87501M151.93,975.793L131.292,975.793M136.667,965.029l-5.37499,-5.37501M131.292,959.654L131.292,948.89M131.292,948.89l5.37499,-4.48612M136.667,944.404l4.48611,0M141.153,944.404l5.40277,4.48612M146.555,948.89l0,5.37501M146.555,948.89l5.37499,-4.48612M151.93,944.404l5.38888,0M157.305,944.404l5.37499,4.48612M162.68,948.89l0,10.7639M162.68,959.654l-5.37499,5.37501"/>
     <path stroke="#000000" gorn="0.1.13" stroke-width="5.55555" stroke-linecap="round" id="_x35_V" fill="none" d="M845.194,991.501l0,20.6111M845.194,1012.13l15.25,0M860.43,1012.13l-5.38888,-9.86112M855.055,1002.27l0,-5.3889M855.055,996.876l5.38888,-5.37501M860.43,991.501l10.7639,0M871.207,991.501l5.37499,5.37501M876.582,996.876l0,9.86112M876.582,1006.74l-5.37499,5.3889M845.194,980.723l20.6111,0M865.805,980.723l10.7639,-10.7639M876.582,969.96l-10.7639,-9.86112M865.805,960.098l-20.6111,0"/>
     <path stroke="#000000" gorn="0.1.14" stroke-width="5.55555" stroke-linecap="round" id="G" fill="none" d="M850.555,875.793l-5.37499,5.3889M845.194,881.182l0,9.86112M845.194,891.043l5.37499,5.3889M850.555,896.432l20.6389,0M871.207,896.432l5.37499,-5.3889M876.582,891.043l0,-9.86112M876.582,881.182l-5.37499,-5.3889M871.207,875.793l-10.7639,0M860.43,875.793l0,10.75"/>
     <path stroke="#000000" gorn="0.1.15" stroke-width="5.55555" stroke-linecap="round" id="D4" fill="none" d="M845.194,812.126l31.3889,0M876.582,812.126l0,-15.2639M876.582,796.876l-5.37499,-5.37501M871.207,791.501L850.555,791.501M850.555,791.501l-5.37499,5.37501M845.194,796.876l0,15.2639M876.582,765.487l-31.3889,0M845.194,765.487l16.1389,15.2361M861.332,780.723l0,-20.6111"/>
     <path stroke="#000000" gorn="0.1.16" stroke-width="5.55555" stroke-linecap="round" id="D3" fill="none" d="M845.194,712.126l31.3889,0M876.582,712.126l0,-15.2639M876.582,696.876l-5.37499,-5.37501M871.207,691.501L850.555,691.501M850.555,691.501l-5.37499,5.37501M845.194,696.876l0,15.2639M850.555,680.723l-5.37499,-5.3889M845.194,675.348l0,-9.86112M845.194,665.487l5.37499,-5.3889M850.555,660.098l4.48611,0M855.055,660.098l5.38888,5.3889M860.43,665.487l0,4.47223M860.43,665.487l5.37499,-5.3889M865.805,660.098l5.40277,0M871.207,660.098l5.37499,5.3889M876.582,665.487l0,9.86112M876.582,675.348l-5.37499,5.3889"/>
     <path stroke="#000000" gorn="0.1.17" stroke-width="5.55555" stroke-linecap="round" id="D2" fill="none" d="M845.194,612.126l31.3889,0M876.582,612.126l0,-15.25M876.582,596.876l-5.37499,-5.40278M871.207,591.487L850.555,591.487M850.555,591.487l-5.37499,5.40278M845.194,596.876l0,15.25M876.582,560.098l0,20.625M876.582,580.723l-20.625,-20.625M855.944,560.098L850.555,560.098M850.555,560.098l-5.37499,5.3889M845.194,565.487l0,9.86112M845.194,575.348l5.37499,5.3889"/>
     <path stroke="#000000" gorn="0.1.18" stroke-width="5.55555" stroke-linecap="round" id="D1" fill="none" d="M845.638,512.126l30.4861,0M876.124,512.126l0,-15.25M876.124,496.876l-4.48611,-5.37501M871.638,491.501l-21.5278,0M850.11,491.501l-4.47222,5.37501M845.638,496.876l0,15.25M855.499,480.737l-9.8611,-10.7778M845.638,469.959l30.4861,0M876.124,480.737l0,-20.6389"/>
     <path stroke="#000000" gorn="0.1.19" stroke-width="5.55555" stroke-linecap="round" id="RX" fill="none" d="M876.582,412.126l-31.3889,0M845.194,412.126l0,-15.25M845.194,396.875l5.37499,-5.37501M850.555,391.5l10.7639,0M861.332,391.5l4.47222,5.37501M865.805,396.875l0,15.25M865.805,402.264l10.7639,-10.75M845.194,380.723l31.3889,-20.6111M845.194,360.098l31.3889,20.6111"/>
     <path stroke="#000000" gorn="0.1.20" stroke-width="5.55555" stroke-linecap="round" id="TX" fill="none" d="M876.124,302.264l-30.4861,0M845.638,312.125l0,-20.625M845.638,280.723l30.4861,-20.6111M845.638,260.098l30.4861,20.6111"/>
     <path stroke="#000000" stroke-width="5.55555" stroke-linecap="round" fill="none" d="M152.778,1184.17L152.778,1152.78M152.778,1152.78l15.25,0M168.028,1152.78l5.37499,5.40278M173.403,1158.17l0,10.75M173.403,1168.93l-5.37499,5.37501M168.028,1174.31L152.778,1174.31M162.639,1174.31l10.75,9.87501M204.805,1152.78L184.166,1152.78M184.166,1152.78l0,31.4028M184.166,1184.17l20.6389,0M184.166,1168.93l10.7639,0M237.097,1158.17L231.708,1152.78M231.708,1152.78l-10.75,0M220.944,1152.78l-5.38888,5.40278M215.569,1158.17l0,5.37501M215.569,1163.54l5.38888,5.3889M220.944,1168.93l10.75,0M231.708,1168.93l5.38888,5.37501M237.097,1174.31l0,4.48612M237.097,1178.79l-5.38888,5.3889M231.708,1184.17l-10.75,0M220.944,1184.17l-5.38888,-5.3889M268.486,1152.78l-20.625,0M247.861,1152.78l0,31.4028M247.861,1184.17l20.625,0M247.861,1168.93l9.8611,0M290.014,1184.17L290.014,1152.78M279.25,1152.78l20.6389,0"/>
     <path stroke="#000000" gorn="0.1.22" stroke-width="6.94444" stroke-linecap="round" id="label-logo-d1" fill="none" d="M715.277,1125l0,58.6806M715.277,1183.67l28.5,0M743.777,1183.67l10.0555,-10.0695M753.833,1173.61l0,-38.5417M753.833,1135.06L743.777,1125M743.777,1125L715.277,1125M773.944,1145.11L794.055,1125M794.055,1125l0,58.6806M773.944,1183.67L812.499,1183.67"/>
     <path stroke="#000000" gorn="0.1.23" stroke-width="6.94444" stroke-linecap="round" id="label-logo-mini" fill="none" d="M830.555,1175l0,-28.75M830.555,1146.25l7.49999,0M838.055,1146.25l6.24999,7.50001M844.305,1153.75l0,21.25M844.305,1153.75l7.49999,-7.50001M851.805,1146.25l7.49999,7.50001M859.305,1153.75l0,21.25M874.305,1146.25l7.49999,0M881.805,1146.25l0,28.75M874.305,1175l15,0M881.805,1125l0,7.50001M904.305,1175l0,-28.75M904.305,1146.25l21.25,0M925.555,1146.25l7.49999,7.50001M933.055,1153.75l0,21.25M948.055,1146.25l7.49999,0M955.555,1146.25l0,28.75M948.055,1175l13.75,0M955.555,1125l0,7.50001"/>
     <path stroke="#000000" gorn="0.1.24" stroke-width="6.94444" stroke-linecap="round" id="label-logo-wemos_cc" fill="none" d="M752.43,1258.6l-10.5555,0M741.874,1258.6L736.11,1252.85M736.11,1252.85l0,-11.5278M736.11,1241.32l5.76388,-4.80556M741.874,1236.52l10.5555,0M752.43,1236.52l5.76388,4.80556M758.194,1241.32l0,5.7639M758.194,1247.08L736.11,1247.08M771.096,1258.6L771.096,1225M771.096,1225l11.5139,11.5139M782.61,1236.52l10.5694,-11.5139M793.18,1225l0,33.5973M811.846,1258.6l11.5139,0M823.36,1258.6l4.80555,-5.75001M828.166,1252.85l0,-11.5278M828.166,1241.32l-4.80555,-4.80556M823.36,1236.52l-11.5139,0M811.846,1236.52l-5.76388,4.80556M806.082,1241.32l0,11.5278M806.082,1252.85l5.76388,5.75001M842.027,1258.6l16.3194,0M858.346,1258.6l5.76388,-5.75001M864.11,1252.85l-5.76388,-5.7639M858.346,1247.08l-11.5139,0M846.832,1247.08l-4.80555,-5.7639M842.027,1241.32l4.80555,-4.80556M846.832,1236.52l17.2778,0M877.013,1258.6l0,-5.75001M877.013,1252.85l5.76388,0M882.777,1252.85l0,5.75001M882.777,1258.6l-5.76388,0M917.763,1236.52l-17.2778,0M900.485,1236.52l-5.76388,4.80556M894.721,1241.32l0,11.5278M894.721,1252.85l5.76388,5.75001M900.485,1258.6l17.2778,0M952.749,1236.52l-17.2778,0M935.471,1236.52l-4.80555,4.80556M930.666,1241.32l0,11.5278M930.666,1252.85l4.80555,5.75001M935.471,1258.6l17.2778,0M710.416,1208.33c34.7222,48.6112,-6.94444,72.2223,-16.6528,44.4445c-8.34721,27.7778,-52.7916,8.33334,-25.0139,-44.4445"/>
    </g>
   </g>
  </g>
 </g>
 <g partID="854119232">
  <g transform="translate(2381.62,871.926)">
   <g transform="matrix(0,1,-1,0,0,0)">
    <g  id="silkscreen">
     <rect stroke="#000000" y="5"  stroke-width="10" id="rect560" height="826.772" width="968.504" fill="none" x="5"/>
    </g>
   </g>
  </g>
 </g>
 <g partID="854119532">
  <g transform="translate(1680.35,2095.14)">
   <g transform="matrix(0,1,-1,0,0,0)">
    <g  id="silkscreen">
     <line stroke="black"  x2="20" x1="20" stroke-width="10" y2="320" y1="20"/>
     <line stroke="black"  x2="120" x1="20" stroke-width="10" y2="320" y1="320"/>
     <line stroke="black"  x2="120" x1="120" stroke-width="10" y2="20" y1="320"/>
     <line stroke="black"  x2="20" x1="120" stroke-width="10" y2="20" y1="20"/>
     <line stroke="black"  x2="55" x1="20" stroke-width="5" y2="20" y1="55"/>
     <!-- 120 -->
    </g>
   </g>
  </g>
 </g>
 <g partID="854119582">
  <g transform="translate(440.352,95.1389)">
   <g  id="silkscreen">
    <line stroke="white"  x2="20" x1="20" stroke-width="10" y2="320" y1="20"/>
    <line stroke="white"  x2="120" x1="20" stroke-width="10" y2="320" y1="320"/>
    <line stroke="white"  x2="120" x1="120" stroke-width="10" y2="20" y1="320"/>
    <line stroke="white"  x2="20" x1="120" stroke-width="10" y2="20" y1="20"/>
    <line stroke="white"  x2="55" x1="20" stroke-width="5" y2="20" y1="55"/>
    <!-- 120 -->
   </g>
  </g>
 </g>
 <g partID="854119632">
  <g transform="translate(3119.55,615.038)">
   <g transform="matrix(0,1,-1,0,0,0)">
    <g transform="matrix(1, 0, 0, 1, 103.661, 137.95)">
     <g id="silkscreen">
      <g gorn="0.4.0">
       <line stroke="#000000" x2="-98.8662" x1="-98.8662" gorn="0.4.0.0" y2="315.698" stroke-width="9.59046" id="line9" y1="-134.989"/>
       <line stroke="#000000" x2="591.544" x1="-99.1429" gorn="0.4.0.1" y2="315.317" stroke-width="8.52666" id="line11" y1="315.317"/>
       <line stroke="#000000" x2="591.461" x1="591.461" gorn="0.4.0.2" y2="-134.997" stroke-width="9.59046" id="line13" y1="315.689"/>
       <line stroke="#000000" x2="-99.6758" x1="591.812" gorn="0.4.0.3" y2="-133.684" stroke-width="8.5316" id="line15" y1="-133.684"/>
       <!-- 120 -->
       <g font-size="48.6111" stroke="none" style="font-style:normal;font-variant:normal;font-weight:normal;font-stretch:normal;line-height:125%;font-family:'Droid Sans';-inkscape-font-specification:'Droid Sans, Normal';text-align:start;letter-spacing:0;word-spacing:0;writing-mode:lr-tb;text-anchor:start;stroke-linecap:butt;stroke-linejoin:miter;" fill-opacity="1" gorn="0.4.0.4" stroke-opacity="1" stroke-width="1" id="text3360" fill="#000000" xmlns:xml="http://www.w3.org/XML/1998/namespace" xml:space="preserve">
        <text y="288.258" gorn="0.4.0.4.0" id="tspan3362" x="10.2336">In+</text>
       </g>
       <g font-size="48.6111" stroke="none" style="font-style:normal;font-variant:normal;font-weight:normal;font-stretch:normal;line-height:125%;font-family:'Droid Sans';-inkscape-font-specification:'Droid Sans, Normal';text-align:start;letter-spacing:0;word-spacing:0;writing-mode:lr-tb;text-anchor:start;stroke-linecap:butt;stroke-linejoin:miter;" fill-opacity="1" gorn="0.4.0.5" stroke-opacity="1" stroke-width="1" id="text3364" fill="#000000" xmlns:xml="http://www.w3.org/XML/1998/namespace" xml:space="preserve">
        <text y="-75.1708" gorn="0.4.0.5.0" id="tspan3366" x="16.4682">In-</text>
       </g>
       <g font-size="48.6111" stroke="none" style="font-style:normal;font-variant:normal;font-weight:normal;font-stretch:normal;line-height:125%;font-family:'Droid Sans';-inkscape-font-specification:'Droid Sans, Normal';text-align:start;letter-spacing:0;word-spacing:0;writing-mode:lr-tb;text-anchor:start;stroke-linecap:butt;stroke-linejoin:miter;" fill-opacity="1" gorn="0.4.0.6" stroke-opacity="1" stroke-width="1" id="text3368" fill="#000000" xmlns:xml="http://www.w3.org/XML/1998/namespace" xml:space="preserve">
        <text y="286.458" gorn="0.4.0.6.0" id="tspan3370" x="344.1">OUT+</text>
       </g>
       <g font-size="48.6111" stroke="none" style="font-style:normal;font-variant:normal;font-weight:normal;font-stretch:normal;line-height:125%;font-family:'Droid Sans';-inkscape-font-specification:'Droid Sans, Normal';text-align:start;letter-spacing:0;word-spacing:0;writing-mode:lr-tb;text-anchor:start;stroke-linecap:butt;stroke-linejoin:miter;" fill-opacity="1" gorn="0.4.0.7" stroke-opacity="1" stroke-width="1" id="text3372" fill="#000000" xmlns:xml="http://www.w3.org/XML/1998/namespace" xml:space="preserve"/>
       <g font-size="48.6111" stroke="none" style="font-style:normal;font-variant:normal;font-weight:normal;font-stretch:normal;line-height:125%;font-family:'Droid Sans';-inkscape-font-specification:'Droid Sans, Normal';text-align:start;letter-spacing:0;word-spacing:0;writing-mode:lr-tb;text-anchor:start;stroke-linecap:butt;stroke-linejoin:miter;" fill-opacity="1" gorn="0.4.0.8" stroke-opacity="1" stroke-width="1" id="text3376" fill="#000000" xmlns:xml="http://www.w3.org/XML/1998/namespace" xml:space="preserve">
        <text y="-68.8853" gorn="0.4.0.8.0" id="tspan3378" x="358.482">OUT-</text>
       </g>
      </g>
     </g>
    </g>
   </g>
  </g>
 </g>
 <g partID="854122921">
  <g transform="translate(936.797,497.806)">
   <g transform="matrix(0,1,-1,0,0,0)">
    <g id="silkscreen">
     <rect stroke="#FFFFFF" y="33.5417" stroke-width="6.94444" height="194.153" fill="none" width="194.153" x="2"/>
     <polyline stroke="#000000" points="11.8333,225.389,3.26389,225.389,3.26389,33.9444,11.8333,33.9444" stroke-width="4.04861" id="path" fill="none"/>
     <polyline stroke="#000000" points="186.125,33.9444,194.708,33.9444,194.708,225.389,186.125,225.389" stroke-width="4.04861" id="path_2_" fill="none"/>
     <path stroke="#000000" stroke-width="3.9375" id="path4174" fill="none" d="M143.208,226.042l-87.7778,0"/>
     <path stroke="#000000" stroke-width="3.9375" id="path4185" fill="none" d="M142.417,34.0833L56.75,34.0833"/>
     <path stroke="#000000" stroke-width="3.93333" stroke-linecap="round" id="path4203" fill="none" d="M180.736,64.25l14.1667,14.1667"/>
     <g transform="matrix(-1, 0, 0, -1, 186.303, 71.9028)">
      <text font-size="27.7778" font-family="'MyriadPro-Regular'">Gnd</text>
     </g>
     <g transform="matrix(-1, 0, 0, -1, 47.7403, 74.5069)">
      <text font-size="27.7778" font-family="'MyriadPro-Regular'">I</text>
     </g>
     <g transform="matrix(-1, 0, 0, -1, 40.8222, 74.5069)">
      <text font-size="27.7778" font-family="'MyriadPro-Regular'">n</text>
     </g>
     <g transform="matrix(-1, 0, 0, -1, 187.347, 169.668)">
      <text font-size="27.7778" font-family="'MyriadPro-Regular'">O</text>
     </g>
     <g transform="matrix(-1, 0, 0, -1, 168.128, 169.668)">
      <text font-size="27.7778" font-family="'MyriadPro-Regular'">u</text>
     </g>
     <g transform="matrix(-1, 0, 0, -1, 152.815, 169.668)">
      <text font-size="27.7778" font-family="'MyriadPro-Regular'">t</text>
     </g>
     <g transform="matrix(-1, 0, 0, -1, 72.0583, 169.668)">
      <text font-size="27.7778" font-family="'MyriadPro-Regular'">VDD</text>
     </g>
     <g transform="matrix(-1, 0, 0, -1, 183.143, 118.94)">
      <text font-size="34.7222" font-family="'MyriadPro-Regular'">W</text>
     </g>
     <g transform="matrix(-1, 0, 0, -1, 153.764, 118.94)">
      <text font-size="34.7222" font-family="'MyriadPro-Regular'">S</text>
     </g>
     <g transform="matrix(-1, 0, 0, -1, 136.647, 118.94)">
      <text font-size="34.7222" font-family="'HelveticaLTStd-Fractions'">2</text>
     </g>
     <g transform="matrix(-1, 0, 0, -1, 117.347, 118.94)">
      <text font-size="34.7222" font-family="'HelveticaLTStd-Fractions'">8</text>
     </g>
     <g transform="matrix(-1, 0, 0, -1, 98.0389, 118.94)">
      <text font-size="34.7222" font-family="'HelveticaLTStd-Fractions'">1</text>
     </g>
     <g transform="matrix(-1, 0, 0, -1, 78.7319, 118.94)">
      <text font-size="34.7222" font-family="'HelveticaLTStd-Fractions'">2</text>
     </g>
     <g transform="matrix(-1, 0, 0, -1, 59.4319, 118.94)">
      <text font-size="34.7222" font-family="'MyriadPro-Regular'">B</text>
     </g>
    </g>
   </g>
  </g>
 </g>
 <g partID="854122951">
  <g transform="translate(1236.8,397.806)">
   <g transform="matrix(0,1,-1,0,0,0)">
    <g id="silkscreen">
     <rect stroke="#FFFFFF" y="33.5417" stroke-width="6.94444" height="194.153" fill="none" width="194.153" x="2"/>
     <polyline stroke="#000000" points="11.8333,225.389,3.26389,225.389,3.26389,33.9444,11.8333,33.9444" stroke-width="4.04861" id="path" fill="none"/>
     <polyline stroke="#000000" points="186.125,33.9444,194.708,33.9444,194.708,225.389,186.125,225.389" stroke-width="4.04861" id="path_2_" fill="none"/>
     <path stroke="#000000" stroke-width="3.9375" id="path4174" fill="none" d="M143.208,226.042l-87.7778,0"/>
     <path stroke="#000000" stroke-width="3.9375" id="path4185" fill="none" d="M142.417,34.0833L56.75,34.0833"/>
     <path stroke="#000000" stroke-width="3.93333" stroke-linecap="round" id="path4203" fill="none" d="M180.736,64.25l14.1667,14.1667"/>
     <g transform="matrix(-1, 0, 0, -1, 186.303, 71.9028)">
      <text font-size="27.7778" font-family="'MyriadPro-Regular'">Gnd</text>
     </g>
     <g transform="matrix(-1, 0, 0, -1, 47.7403, 74.5069)">
      <text font-size="27.7778" font-family="'MyriadPro-Regular'">I</text>
     </g>
     <g transform="matrix(-1, 0, 0, -1, 40.8222, 74.5069)">
      <text font-size="27.7778" font-family="'MyriadPro-Regular'">n</text>
     </g>
     <g transform="matrix(-1, 0, 0, -1, 187.347, 169.668)">
      <text font-size="27.7778" font-family="'MyriadPro-Regular'">O</text>
     </g>
     <g transform="matrix(-1, 0, 0, -1, 168.128, 169.668)">
      <text font-size="27.7778" font-family="'MyriadPro-Regular'">u</text>
     </g>
     <g transform="matrix(-1, 0, 0, -1, 152.815, 169.668)">
      <text font-size="27.7778" font-family="'MyriadPro-Regular'">t</text>
     </g>
     <g transform="matrix(-1, 0, 0, -1, 72.0583, 169.668)">
      <text font-size="27.7778" font-family="'MyriadPro-Regular'">VDD</text>
     </g>
     <g transform="matrix(-1, 0, 0, -1, 183.143, 118.94)">
      <text font-size="34.7222" font-family="'MyriadPro-Regular'">W</text>
     </g>
     <g transform="matrix(-1, 0, 0, -1, 153.764, 118.94)">
      <text font-size="34.7222" font-family="'MyriadPro-Regular'">S</text>
     </g>
     <g transform="matrix(-1, 0, 0, -1, 136.647, 118.94)">
      <text font-size="34.7222" font-family="'HelveticaLTStd-Fractions'">2</text>
     </g>
     <g transform="matrix(-1, 0, 0, -1, 117.347, 118.94)">
      <text font-size="34.7222" font-family="'HelveticaLTStd-Fractions'">8</text>
     </g>
     <g transform="matrix(-1, 0, 0, -1, 98.0389, 118.94)">
      <text font-size="34.7222" font-family="'HelveticaLTStd-Fractions'">1</text>
     </g>
     <g transform="matrix(-1, 0, 0, -1, 78.7319, 118.94)">
      <text font-size="34.7222" font-family="'HelveticaLTStd-Fractions'">2</text>
     </g>
     <g transform="matrix(-1, 0, 0, -1, 59.4319, 118.94)">
      <text font-size="34.7222" font-family="'MyriadPro-Regular'">B</text>
     </g>
    </g>
   </g>
  </g>
 </g>
 <g partID="854122981">
  <g transform="translate(1236.8,697.806)">
   <g transform="matrix(0,1,-1,0,0,0)">
    <g id="silkscreen">
     <rect stroke="#FFFFFF" y="33.5417" stroke-width="6.94444" height="194.153" fill="none" width="194.153" x="2"/>
     <polyline stroke="#000000" points="11.8333,225.389,3.26389,225.389,3.26389,33.9444,11.8333,33.9444" stroke-width="4.04861" id="path" fill="none"/>
     <polyline stroke="#000000" points="186.125,33.9444,194.708,33.9444,194.708,225.389,186.125,225.389" stroke-width="4.04861" id="path_2_" fill="none"/>
     <path stroke="#000000" stroke-width="3.9375" id="path4174" fill="none" d="M143.208,226.042l-87.7778,0"/>
     <path stroke="#000000" stroke-width="3.9375" id="path4185" fill="none" d="M142.417,34.0833L56.75,34.0833"/>
     <path stroke="#000000" stroke-width="3.93333" stroke-linecap="round" id="path4203" fill="none" d="M180.736,64.25l14.1667,14.1667"/>
     <g transform="matrix(-1, 0, 0, -1, 186.303, 71.9028)">
      <text font-size="27.7778" font-family="'MyriadPro-Regular'">Gnd</text>
     </g>
     <g transform="matrix(-1, 0, 0, -1, 47.7403, 74.5069)">
      <text font-size="27.7778" font-family="'MyriadPro-Regular'">I</text>
     </g>
     <g transform="matrix(-1, 0, 0, -1, 40.8222, 74.5069)">
      <text font-size="27.7778" font-family="'MyriadPro-Regular'">n</text>
     </g>
     <g transform="matrix(-1, 0, 0, -1, 187.347, 169.668)">
      <text font-size="27.7778" font-family="'MyriadPro-Regular'">O</text>
     </g>
     <g transform="matrix(-1, 0, 0, -1, 168.128, 169.668)">
      <text font-size="27.7778" font-family="'MyriadPro-Regular'">u</text>
     </g>
     <g transform="matrix(-1, 0, 0, -1, 152.815, 169.668)">
      <text font-size="27.7778" font-family="'MyriadPro-Regular'">t</text>
     </g>
     <g transform="matrix(-1, 0, 0, -1, 72.0583, 169.668)">
      <text font-size="27.7778" font-family="'MyriadPro-Regular'">VDD</text>
     </g>
     <g transform="matrix(-1, 0, 0, -1, 183.143, 118.94)">
      <text font-size="34.7222" font-family="'MyriadPro-Regular'">W</text>
     </g>
     <g transform="matrix(-1, 0, 0, -1, 153.764, 118.94)">
      <text font-size="34.7222" font-family="'MyriadPro-Regular'">S</text>
     </g>
     <g transform="matrix(-1, 0, 0, -1, 136.647, 118.94)">
      <text font-size="34.7222" font-family="'HelveticaLTStd-Fractions'">2</text>
     </g>
     <g transform="matrix(-1, 0, 0, -1, 117.347, 118.94)">
      <text font-size="34.7222" font-family="'HelveticaLTStd-Fractions'">8</text>
     </g>
     <g transform="matrix(-1, 0, 0, -1, 98.0389, 118.94)">
      <text font-size="34.7222" font-family="'HelveticaLTStd-Fractions'">1</text>
     </g>
     <g transform="matrix(-1, 0, 0, -1, 78.7319, 118.94)">
      <text font-size="34.7222" font-family="'HelveticaLTStd-Fractions'">2</text>
     </g>
     <g transform="matrix(-1, 0, 0, -1, 59.4319, 118.94)">
      <text font-size="34.7222" font-family="'MyriadPro-Regular'">B</text>
     </g>
    </g>
   </g>
  </g>
 </g>
 <g partID="854119530" id="partLabel">
  <g transform="translate(1580.35,1900)">
   <g font-size="69.444" stroke="none" font-style="normal" font-weight="normal" font-family="'OCR-Fritzing-mono'" fill-opacity="1" id="silkscreenLabel" fill="#000000">
    <text y="69.444" x="0">S1</text>
   </g>
  </g>
 </g>
 <g partID="854119230" id="partLabel">
  <g transform="translate(2452.49,847.653)">
   <g font-size="69.444" stroke="none" font-style="normal" font-weight="normal" font-family="'OCR-Fritzing-mono'" fill-opacity="1" id="silkscreenLabel" fill="#000000">
    <text y="69.444" x="0">A1</text>
   </g>
  </g>
 </g>
 <g partID="854119580" id="partLabel">
  <g transform="translate(580.352,0)">
   <g font-size="69.444" stroke="none" font-style="normal" font-weight="normal" font-family="'OCR-Fritzing-mono'" fill-opacity="1" id="silkscreenLabel" fill="#000000">
    <text y="69.444" x="0">VCC1</text>
   </g>
  </g>
 </g>
 <g partID="854119200" id="partLabel">
  <g transform="translate(1177.16,796.763)">
   <g font-size="69.444" stroke="none" font-style="normal" font-weight="normal" font-family="'OCR-Fritzing-mono'" fill-opacity="1" id="silkscreenLabel" fill="#000000">
    <text y="69.444" x="0">ESP32 - Back1</text>
   </g>
  </g>
 </g>
 <g partID="854119630" id="partLabel">
  <g transform="translate(3240.74,641.092)">
   <g font-size="69.444" stroke="none" font-style="normal" font-weight="normal" font-family="'OCR-Fritzing-mono'" fill-opacity="1" id="silkscreenLabel" fill="#000000">
    <text y="69.444" x="0">U1</text>
   </g>
  </g>
 </g>
 <g partID="854119170" id="partLabel">
  <g transform="translate(280.352,400)">
   <g font-size="69.444" stroke="none" font-style="normal" font-weight="normal" font-family="'OCR-Fritzing-mono'" fill-opacity="1" id="silkscreenLabel" fill="#000000">
    <text y="69.444" x="0">M2</text>
   </g>
  </g>
 </g>
 <g partID="854119140" id="partLabel">
  <g transform="translate(280.352,0)">
   <g font-size="69.444" stroke="none" font-style="normal" font-weight="normal" font-family="'OCR-Fritzing-mono'" fill-opacity="1" id="silkscreenLabel" fill="#000000">
    <text y="69.444" x="0">M1</text>
   </g>
  </g>
 </g>
 <g partID="854122920" id="partLabel">
  <g transform="translate(906.452,372.327)">
   <g font-size="69.444" stroke="none" font-style="normal" font-weight="normal" font-family="'OCR-Fritzing-mono'" fill-opacity="1" id="silkscreenLabel" fill="#000000">
    <text y="69.444" x="0">&#x41a;&#x43e;&#x43c;&#x43f;&#x43e;&#x43d;&#x435;&#x43d;&#x442;1</text>
   </g>
  </g>
 </g>
 <g partID="854122950" id="partLabel">
  <g transform="translate(1206.45,272.327)">
   <g font-size="69.444" stroke="none" font-style="normal" font-weight="normal" font-family="'OCR-Fritzing-mono'" fill-opacity="1" id="silkscreenLabel" fill="#000000">
    <text y="69.444" x="0">&#x41a;&#x43e;&#x43c;&#x43f;&#x43e;&#x43d;&#x435;&#x43d;&#x442;2</text>
   </g>
  </g>
 </g>
 <g partID="854122980" id="partLabel">
  <g transform="translate(1206.45,572.327)">
   <g font-size="69.444" stroke="none" font-style="normal" font-weight="normal" font-family="'OCR-Fritzing-mono'" fill-opacity="1" id="silkscreenLabel" fill="#000000">
    <text y="69.444" x="0">&#x41a;&#x43e;&#x43c;&#x43f;&#x43e;&#x43d;&#x435;&#x43d;&#x442;3</text>
   </g>
  </g>
 </g>
</svg>
