<?xml version="1.0" standalone="no"?>
<!DOCTYPE svg PUBLIC "-//W3C//DTD SVG 20010904//EN"
 "http://www.w3.org/TR/2001/REC-SVG-20010904/DTD/svg10.dtd">
<svg version="1.0" xmlns="http://www.w3.org/2000/svg"
 width="640.000000pt" height="640.000000pt" viewBox="0 0 640.000000 640.000000"
 preserveAspectRatio="xMidYMid meet">

<g transform="translate(0.000000,640.000000) scale(0.100000,-0.100000)"
fill="#ecf0f1" stroke="none">
<path d="M4814 5405 c-327 -60 -599 -259 -743 -543 -12 -24 -20 -50 -17 -58 7
-19 129 -76 147 -69 8 3 35 40 59 82 110 189 304 334 520 389 110 28 307 26
413 -4 385 -109 638 -463 614 -857 -19 -307 -189 -563 -462 -696 -178 -86
-385 -110 -557 -65 -32 9 -64 13 -72 10 -12 -5 -56 -122 -56 -151 0 -19 34
-33 113 -48 293 -54 569 4 804 172 129 92 276 275 342 428 33 75 70 239 77
340 19 272 -86 559 -280 764 -231 243 -586 364 -902 306z"/>
<path d="M1165 5381 c-235 -61 -424 -186 -566 -373 -339 -449 -250 -1099 196
-1431 200 -149 419 -216 665 -204 122 6 242 30 261 53 9 11 8 29 -6 77 -27 93
-29 94 -127 74 -272 -56 -553 23 -751 211 -331 315 -346 837 -32 1171 107 114
257 205 401 241 108 28 301 28 410 0 221 -56 404 -197 523 -402 23 -40 44 -64
56 -65 11 -2 47 12 80 30 46 24 60 37 59 54 -1 39 -97 183 -181 273 -130 138
-279 229 -470 286 -76 23 -111 27 -248 30 -151 4 -166 3 -270 -25z"/>
<path d="M4664 4590 c-167 -23 -297 -91 -412 -214 -71 -76 -127 -179 -253
-461 -141 -316 -217 -447 -284 -493 -47 -32 -122 -53 -212 -59 l-83 -6 -2 614
-3 614 -220 0 -220 0 -3 -614 -2 -614 -78 6 c-42 3 -107 15 -144 27 -98 30
-145 87 -259 313 -49 98 -89 184 -89 190 0 25 -181 377 -223 433 -91 123 -245
222 -390 249 -93 18 -392 21 -402 5 -13 -20 -7 -361 6 -377 10 -11 33 -13 108
-10 174 7 259 -17 324 -93 40 -47 111 -187 192 -380 136 -322 212 -432 352
-511 24 -13 43 -26 43 -29 0 -3 -17 -14 -37 -25 -48 -25 -145 -104 -202 -163
-67 -70 -167 -207 -262 -359 -403 -644 -560 -905 -554 -924 6 -19 15 -19 263
-17 l257 3 202 330 c381 621 415 676 478 754 73 90 125 137 193 174 53 29 149
57 194 57 l28 0 0 -648 c0 -491 3 -651 12 -660 9 -9 71 -12 220 -12 195 0 208
1 218 19 7 14 8 225 3 660 l-6 641 39 0 c94 -1 189 -39 265 -108 107 -96 232
-279 574 -837 115 -187 215 -348 223 -357 14 -16 39 -18 257 -18 245 0 265 3
265 38 0 7 -77 138 -172 290 -94 152 -223 360 -286 462 -171 277 -257 401
-340 491 -74 79 -166 155 -233 192 l-33 19 54 34 c141 89 226 214 340 500 97
241 172 374 242 428 50 37 136 56 259 56 59 0 114 3 123 6 14 5 16 32 16 189
0 101 -4 186 -9 189 -16 10 -276 15 -337 6z"/>
<path d="M1455 2735 c-321 -54 -601 -260 -748 -550 -31 -62 -71 -180 -88 -260
-20 -93 -18 -324 5 -420 100 -431 442 -740 880 -795 352 -45 717 112 933 400
89 119 183 341 183 433 0 33 -20 43 -108 53 l-61 6 -11 -43 c-82 -325 -303
-559 -605 -640 -112 -30 -317 -31 -426 -1 -82 22 -195 75 -269 125 -217 149
-355 417 -353 687 3 278 140 534 366 684 143 94 253 130 437 144 100 7 104 8
111 32 12 42 10 135 -3 148 -16 16 -139 14 -243 -3z"/>
<path d="M4691 2737 c-14 -18 -7 -142 10 -163 5 -6 57 -14 121 -17 129 -7 202
-24 307 -73 340 -157 540 -548 465 -911 -68 -332 -315 -586 -640 -659 -91 -20
-317 -15 -399 9 -195 57 -355 171 -464 330 -43 64 -106 199 -122 262 -21 86
-23 88 -87 81 -83 -10 -101 -16 -107 -37 -15 -46 80 -294 156 -406 129 -192
336 -340 573 -411 84 -25 104 -27 271 -27 158 0 190 3 260 23 363 105 637 383
729 740 46 176 35 425 -27 597 -29 80 -102 221 -127 245 -3 3 -29 34 -57 70
-123 152 -323 278 -523 330 -116 29 -320 40 -339 17z"/>
</g>
</svg>